<mxfile host="app.diagrams.net" modified="2021-06-24T09:32:36.748Z" agent="5.0 (X11)" etag="TaPg_DlPXX6epbwXm8hQ" version="14.8.0" type="github" pages="2">
  <diagram id="8MeH5WZ3r6_UzruFe7fX" name="NOC">
    <mxGraphModel dx="1662" dy="715" grid="1" gridSize="10" guides="1" tooltips="1" connect="1" arrows="1" fold="1" page="1" pageScale="1" pageWidth="850" pageHeight="1100" math="0" shadow="0">
      <root>
        <mxCell id="0" />
        <mxCell id="1" parent="0" />
        <mxCell id="AoguCB4BfaQlQVTTWqwP-1" value="&lt;font style=&quot;font-size: 24px&quot;&gt;Topologi NOC Palembang&lt;/font&gt;" style="text;html=1;strokeColor=none;fillColor=none;align=center;verticalAlign=middle;whiteSpace=wrap;rounded=0;" parent="1" vertex="1">
          <mxGeometry x="100" y="20" width="590" height="20" as="geometry" />
        </mxCell>
        <mxCell id="AoguCB4BfaQlQVTTWqwP-2" value="" style="html=1;outlineConnect=0;fillColor=#CCCCCC;strokeColor=#6881B3;gradientColor=none;gradientDirection=north;strokeWidth=2;shape=mxgraph.networks.cloud;fontColor=#ffffff;" parent="1" vertex="1">
          <mxGeometry x="746.5" y="90" width="90" height="50" as="geometry" />
        </mxCell>
        <mxCell id="AoguCB4BfaQlQVTTWqwP-3" value="ICT UNSRI" style="text;html=1;strokeColor=none;fillColor=none;align=center;verticalAlign=middle;whiteSpace=wrap;rounded=0;" parent="1" vertex="1">
          <mxGeometry x="781.5" y="160" width="40" height="20" as="geometry" />
        </mxCell>
        <mxCell id="AoguCB4BfaQlQVTTWqwP-4" value="" style="shape=mxgraph.cisco.routers.10700;html=1;pointerEvents=1;dashed=0;fillColor=#036897;strokeColor=#ffffff;strokeWidth=2;verticalLabelPosition=bottom;verticalAlign=top;align=center;outlineConnect=0;" parent="1" vertex="1">
          <mxGeometry x="560" y="170" width="78" height="53" as="geometry" />
        </mxCell>
        <mxCell id="AoguCB4BfaQlQVTTWqwP-5" value="" style="html=1;outlineConnect=0;fillColor=#CCCCCC;strokeColor=#6881B3;gradientColor=none;gradientDirection=north;strokeWidth=2;shape=mxgraph.networks.comm_link_edge;html=1;exitX=0.88;exitY=0.1;exitDx=0;exitDy=0;exitPerimeter=0;" parent="1" source="AoguCB4BfaQlQVTTWqwP-4" target="AoguCB4BfaQlQVTTWqwP-2" edge="1">
          <mxGeometry width="100" height="100" relative="1" as="geometry">
            <mxPoint x="376.5" y="460" as="sourcePoint" />
            <mxPoint x="476.5" y="360" as="targetPoint" />
          </mxGeometry>
        </mxCell>
        <mxCell id="AoguCB4BfaQlQVTTWqwP-6" value="R. Gateway Publik" style="text;html=1;strokeColor=none;fillColor=none;align=center;verticalAlign=middle;whiteSpace=wrap;rounded=0;" parent="1" vertex="1">
          <mxGeometry x="550" y="230" width="111" height="20" as="geometry" />
        </mxCell>
        <mxCell id="AoguCB4BfaQlQVTTWqwP-8" value="" style="shape=mxgraph.cisco.routers.10700;html=1;pointerEvents=1;dashed=0;fillColor=#036897;strokeColor=#ffffff;strokeWidth=2;verticalLabelPosition=bottom;verticalAlign=top;align=center;outlineConnect=0;" parent="1" vertex="1">
          <mxGeometry x="370" y="170" width="78" height="53" as="geometry" />
        </mxCell>
        <mxCell id="AoguCB4BfaQlQVTTWqwP-9" value="R. Dist SRV Publik" style="text;html=1;strokeColor=none;fillColor=none;align=center;verticalAlign=middle;whiteSpace=wrap;rounded=0;" parent="1" vertex="1">
          <mxGeometry x="360" y="230" width="111" height="20" as="geometry" />
        </mxCell>
        <mxCell id="XPe9vk9ZRKaM4tVIVb_3-1" value="" style="shape=mxgraph.cisco.switches.layer_2_remote_switch;html=1;pointerEvents=1;dashed=0;fillColor=#036897;strokeColor=#ffffff;strokeWidth=2;verticalLabelPosition=bottom;verticalAlign=top;align=center;outlineConnect=0;" parent="1" vertex="1">
          <mxGeometry x="548.5" y="300" width="101" height="50" as="geometry" />
        </mxCell>
      </root>
    </mxGraphModel>
  </diagram>
  <diagram id="CFBoQtsgGZImR9UMeINB" name="Gedung Auditorium Lantai 7">
    <mxGraphModel dx="702" dy="715" grid="1" gridSize="10" guides="1" tooltips="1" connect="1" arrows="1" fold="1" page="1" pageScale="1" pageWidth="850" pageHeight="1100" math="0" shadow="0">
      <root>
        <mxCell id="on1tU61zYMD7oKZNVr8x-0" />
        <mxCell id="on1tU61zYMD7oKZNVr8x-1" parent="on1tU61zYMD7oKZNVr8x-0" />
      </root>
    </mxGraphModel>
  </diagram>
</mxfile>
